#!OML:ASF H:\Pregnant\Project 1\Capture day 1\Session 1\femalepreg.ASF
:FULLY-SPECIFIED
:DEGREES
319
root 10.2552 15.1918 26.5829 200.89 -74.2561 -177.477
lowerback -10.7016 -0.496465 4.44538
upperback -4.24674 -1.45255 3.43212
thorax 1.55656 -0.852915 0.885648
lowerneck -5.1722 22.4563 23.5639
upperneck -6.57964 30.9165 -38.545
head 9.72831 14.332 -11.0457
rclavicle -1.59028e-015 -1.27222e-014
rhumerus -73.4846 -34.1355 -6.14191
rradius 30.6022
rwrist -17.4332
rhand -18.303 -27.2749
rfingers 7.12502
rthumb 7.97787 -57.1043
lclavicle -1.59028e-015 -1.27222e-014
lhumerus -31.487 6.45421 76.6611
lradius 29.9802
lwrist 45.3884
lhand -34.3104 6.99395
lfingers 7.12502
lthumb -7.47915 36.8417
rfemur -51.3727 12.0819 20.7275
rtibia 44.8319
rfoot -13.336 -13.0495
rtoes -2.88158
lfemur -44.8557 -6.37377 -19.1452
ltibia 66.4728
lfoot -9.69267 6.11501
ltoes -19.9296
320
root 10.3014 15.2334 26.6135 201.494 -74.5345 -177.986
lowerback -11.0402 -0.602767 4.20887
upperback -4.40064 -1.58953 3.35175
thorax 1.58372 -0.923777 0.914313
lowerneck -5.01971 22.5483 23.6407
upperneck -6.52213 31.0715 -38.351
head 9.72177 14.4198 -10.9427
rclavicle 1.37161e-014 -1.90833e-014
rhumerus -73.6731 -34.2359 -6.81789
rradius 30.4544
rwrist -16.9966
rhand -18.4268 -27.2539
rfingers 7.12502
rthumb 7.85845 -57.0879
lclavicle 1.37161e-014 -1.90833e-014
lhumerus -30.1826 5.06896 77.8449
lradius 30.2214
lwrist 45.5106
lhand -34.233 6.81452
lfingers 7.12502
lthumb -7.40451 36.6649
rfemur -51.3087 12.4281 20.14
rtibia 44.1166
rfoot -12.8632 -13.575
rtoes -2.13891
lfemur -43.136 -6.68844 -18.9309
ltibia 64.8439
lfoot -9.81189 6.29768
ltoes -19.2172
321
root 10.3478 15.2709 26.645 202.039 -74.816 -178.454
lowerback -11.375 -0.713334 3.98314
upperback -4.53699 -1.73198 3.27244
thorax 1.62694 -0.996769 0.936302
lowerneck -4.85315 22.6329 23.7077
upperneck -6.4857 31.2086 -38.1419
head 9.69478 14.5031 -10.8416
rclavicle 8.94531e-015 -7.15625e-014
rhumerus -73.781 -34.3512 -7.60769
rradius 30.3115
rwrist -16.614
rhand -18.696 -27.3162
rfingers 7.12502
rthumb 7.5986 -57.1597
lclavicle 8.94531e-015 -7.15625e-014
lhumerus -28.8763 3.60342 78.9823
lradius 30.4687
lwrist 45.5914
lhand -34.1365 6.66755
lfingers 7.12502
lthumb -7.31128 36.5212
rfemur -51.2447 12.7629 19.5767
rtibia 43.4408
rfoot -12.3819 -14.1263
rtoes -1.68202
lfemur -41.4007 -7.01937 -18.7093
ltibia 63.1067
lfoot -9.86759 6.53814
ltoes -18.7231
322
root 10.3945 15.3042 26.6774 202.52 -75.0996 -178.871
lowerback -11.7049 -0.829894 3.7733
upperback -4.65343 -1.8823 3.18943
thorax 1.68772 -1.07305 0.943375
lowerneck -4.67151 22.7107 23.7805
upperneck -6.47909 31.3271 -37.9228
head 9.6485 14.582 -10.7464
rclavicle 1.76918e-014 -1.74931e-014
rhumerus -73.7919 -34.4874 -8.52702
rradius 30.1539
rwrist -16.2939
rhand -19.0908 -27.4567
rfingers 7.12502
rthumb 7.21751 -57.3136
lclavicle 1.76918e-014 -1.74931e-014
lhumerus -27.5688 2.0457 80.058
lradius 30.7293
lwrist 45.6466
lhand -34.0392 6.54765
lfingers 7.12502
lthumb -7.21738 36.4046
rfemur -51.1814 13.0658 19.0528
rtibia 42.8055
rfoot -11.8947 -14.679
rtoes -1.50193
lfemur -39.6525 -7.35842 -18.48
ltibia 61.2665
lfoot -9.86414 6.81733
ltoes -18.4144
323
root 10.4418 15.3336 26.7108 202.94 -75.386 -179.242
lowerback -12.0236 -0.954201 3.5727
upperback -4.75717 -2.04202 3.10894
thorax 1.75547 -1.1537 0.945631
lowerneck -4.46672 22.7805 23.8467
upperneck -6.50325 31.4268 -37.6948
head 9.57953 14.6573 -10.6571
rclavicle 1.0138e-014 1.27222e-014
rhumerus -73.6885 -34.6253 -9.58899
rradius 29.9841
rwrist -16.0604
rhand -19.5788 -27.694
rfingers 7.12502
rthumb 6.74642 -57.5665
lclavicle 1.0138e-014 1.27222e-014
lhumerus -26.2745 0.411611 81.0689
lradius 31.0099
lwrist 45.6752
lhand -33.9267 6.45287
lfingers 7.12502
lthumb -7.10883 36.3135
rfemur -51.123 13.3278 18.568
rtibia 42.2111
rfoot -11.4123 -15.2102
rtoes -1.5367
lfemur -37.8907 -7.72719 -18.2322
ltibia 59.333
lfoot -9.83979 7.08954
ltoes -17.9151
324
root 10.4896 15.3589 26.745 203.246 -75.6742 -179.509
lowerback -12.2882 -1.04079 3.4413
upperback -4.86357 -2.15363 2.99457
thorax 1.78757 -1.21142 0.880706
lowerneck -4.3321 22.8144 23.9326
upperneck -6.47563 31.4717 -37.4471
head 9.52261 14.6974 -10.5799
rclavicle -4.35338e-014 1.90833e-014
rhumerus -73.6015 -34.7634 -10.7054
rradius 29.8011
rwrist -15.9207
rhand -20.1255 -27.9963
rfingers 7.12502
rthumb 6.21867 -57.885
lclavicle -4.35338e-014 1.90833e-014
lhumerus -24.9773 -1.37086 82.01
lradius 31.3039
lwrist 45.649
lhand -33.7484 6.39162
lfingers 7.12502
lthumb -6.93671 36.258
rfemur -51.0737 13.5493 18.1354
rtibia 41.6593
rfoot -10.9514 -15.6935
rtoes -1.65512
lfemur -36.1182 -8.09032 -17.9664
ltibia 57.302
lfoot -9.7629 7.37115
ltoes -17.6893
325
root 10.5385 15.3808 26.7805 203.494 -75.9659 -179.727
lowerback -12.5557 -1.14914 3.29648
upperback -4.95054 -2.29258 2.89561
thorax 1.84227 -1.2819 0.834453
lowerneck -4.15488 22.8565 24.0282
upperneck -6.50389 31.5238 -37.2222
head 9.45059 14.7481 -10.5122
rclavicle 1.72943e-014 -8.74653e-015
rhumerus -73.3433 -34.9129 -11.9831
rradius 29.5777
rwrist -15.8301
rhand -20.7254 -28.3199
rfingers 7.12502
rthumb 5.63944 -58.2249
lclavicle 1.72943e-014 -8.74653e-015
lhumerus -23.6958 -3.1124 82.8537
lradius 31.6291
lwrist 45.5292
lhand -33.5124 6.33268
lfingers 7.12502
lthumb -6.70884 36.2064
rfemur -51.0376 13.722 17.7403
rtibia 41.1513
rfoot -10.5131 -16.1263
rtoes -1.7949
lfemur -34.3309 -8.483 -17.6778
ltibia 55.1779
lfoot -9.68074 7.58073
ltoes -17.0211
326
root 10.5884 15.3991 26.8168 203.657 -76.2596 -179.868
lowerback -12.8126 -1.25474 3.17281
upperback -5.02375 -2.42824 2.78423
thorax 1.90395 -1.35045 0.763076
lowerneck -3.97542 22.8935 24.1366
upperneck -6.55628 31.5609 -36.9934
head 9.36769 14.7936 -10.4509
rclavicle 2.75317e-014 3.97569e-015
rhumerus -72.9905 -35.0649 -13.3978
rradius 29.3267
rwrist -15.7822
rhand -21.3605 -28.6679
rfingers 7.12502
rthumb 5.02631 -58.5883
lclavicle 2.75317e-014 3.97569e-015
lhumerus -22.445 -4.90777 83.5921
lradius 32.0312
lwrist 45.3549
lhand -33.2069 6.26987
lfingers 7.12502
lthumb -6.41398 36.1528
rfemur -51.0138 13.84 17.3976
rtibia 40.6876
rfoot -10.0989 -16.5016
rtoes -1.96967
lfemur -32.5356 -8.88845 -17.3748
ltibia 52.953
lfoot -9.52188 7.75738
ltoes -16.4195
327
root 10.6396 15.4142 26.8542 203.767 -76.5582 -179.961
lowerback -13.0807 -1.38434 3.02918
upperback -5.07875 -2.59366 2.68911
thorax 1.99192 -1.4329 0.713921
lowerneck -3.7603 22.9444 24.2172
upperneck -6.66364 31.6081 -36.7509
head 9.25538 14.851 -10.3815
rclavicle 1.03368e-014 7.95139e-016
rhumerus -72.4491 -35.2115 -14.9904
rradius 29.0327
rwrist -15.7426
rhand -22.0059 -29.0423
rfingers 7.12502
rthumb 4.40307 -58.9765
lclavicle 1.03368e-014 7.95139e-016
lhumerus -21.2409 -6.65904 84.2252
lradius 32.5367
lwrist 45.1155
lhand -32.8859 6.19065
lfingers 7.12502
lthumb -6.10404 36.0827
rfemur -51.0105 13.894 17.101
rtibia 40.2672
rfoot -9.70558 -16.8157
rtoes -2.15122
lfemur -30.7402 -9.32509 -17.0609
ltibia 50.6282
lfoot -9.28116 7.88056
ltoes -15.7665
328
root 10.6927 15.4261 26.8932 203.834 -76.8594 -180.011
lowerback -13.3568 -1.54175 2.86895
upperback -5.11836 -2.79348 2.60443
thorax 2.10124 -1.53172 0.678082
lowerneck -3.49672 23.0129 24.2793
upperneck -6.83376 31.6709 -36.491
head 9.11132 14.9244 -10.3039
rclavicle -8.84592e-015 2.06736e-014
rhumerus -71.7164 -35.3449 -16.7649
rradius 28.6893
rwrist -15.6673
rhand -22.6283 -29.4406
rfingers 7.12502
rthumb 3.80206 -59.3864
lclavicle -8.84592e-015 2.06736e-014
lhumerus -20.08 -8.31742 84.7324
lradius 33.1342
lwrist 44.7863
lhand -32.5404 6.06259
lfingers 7.12502
lthumb -5.7705 35.964
rfemur -51.0304 13.8843 16.8462
rtibia 39.8878
rfoot -9.33625 -17.0668
rtoes -2.28404
lfemur -28.9419 -9.81142 -16.727
ltibia 48.2072
lfoot -9.00434 7.91886
ltoes -14.6382
329
root 10.7475 15.435 26.9331 203.811 -77.1643 -179.978
lowerback -13.6218 -1.70832 2.69969
upperback -5.14862 -3.00303 2.53346
thorax 2.21558 -1.63501 0.658817
lowerneck -3.20651 23.0777 24.315
upperneck -7.03185 31.7238 -36.2109
head 8.94209 14.998 -10.2254
rclavicle -2.9122e-014 -1.59028e-014
rhumerus -70.8642 -35.4772 -18.6039
rradius 28.2883
rwrist -15.488
rhand -23.1218 -29.845
rfingers 7.12502
rthumb 3.32551 -59.7988
lclavicle -2.9122e-014 -1.59028e-014
lhumerus -18.9161 -9.81513 85.1461
lradius 33.7428
lwrist 44.2905
lhand -32.1828 5.84464
lfingers 7.12502
lthumb -5.42524 35.7552
rfemur -51.0648 13.8223 16.6415
rtibia 39.5445
rfoot -8.97348 -17.2651
rtoes -2.42939
lfemur -27.1499 -10.3351 -16.381
ltibia 45.687
lfoot -8.62136 7.93179
ltoes -13.6807
330
root 10.8043 15.4406 26.9743 203.678 -77.4707 -179.838
lowerback -13.8598 -1.87115 2.53948
upperback -5.17283 -3.20652 2.46905
thorax 2.32201 -1.73524 0.641681
lowerneck -2.92932 23.13 24.3218
upperneck -7.22772 31.7541 -35.9023
head 8.7583 15.0602 -10.1443
rclavicle 3.08116e-014 -1.51076e-014
rhumerus -69.9397 -35.6254 -20.4494
rradius 27.8429
rwrist -15.1771
rhand -23.4245 -30.2706
rfingers 7.12502
rthumb 3.03313 -60.2288
lclavicle 3.08116e-014 -1.51076e-014
lhumerus -17.7683 -11.2648 85.489
lradius 34.4075
lwrist 43.7581
lhand -31.8671 5.56591
lfingers 7.12502
lthumb -5.12037 35.484
rfemur -51.1165 13.7201 16.4819
rtibia 39.2328
rfoot -8.63052 -17.4165
rtoes -2.51329
lfemur -25.3638 -10.8826 -16.0194
ltibia 43.0732
lfoot -8.18597 7.89272
ltoes -12.9675
331
root 10.8627 15.4435 27.0168 203.42 -77.7743 -179.582
lowerback -14.0657 -2.02512 2.38936
upperback -5.19452 -3.3973 2.40908
thorax 2.41388 -1.82926 0.625514
lowerneck -2.6592 23.1669 24.3112
upperneck -7.4077 31.763 -35.5673
head 8.56662 15.1112 -10.0632
rclavicle -5.27773e-014 1.98785e-014
rhumerus -68.9801 -35.7967 -22.2547
rradius 27.3568
rwrist -14.6932
rhand -23.4923 -30.6448
rfingers 7.12502
rthumb 2.96771 -60.6039
lclavicle -5.27773e-014 1.98785e-014
lhumerus -16.6085 -12.6301 85.7737
lradius 35.0655
lwrist 43.1785
lhand -31.5988 5.21012
lfingers 7.12502
lthumb -4.86133 35.1343
rfemur -51.1788 13.5868 16.3653
rtibia 38.9516
rfoot -8.30772 -17.5288
rtoes -2.56644
lfemur -23.58 -11.4829 -15.6493
ltibia 40.3584
lfoot -7.72863 7.82259
ltoes -12.9652
